<svg id="svg" version="1.1" xmlns="http://www.w3.org/2000/svg" xmlns:xlink="http://www.w3.org/1999/xlink" width="400" height="400" viewBox="0, 0, 400,400"><g id="svgg"><path id="path0" d="M191.800 44.246 C 131.296 50.505,96.079 114.578,123.256 168.951 C 135.435 193.317,157.457 209.451,186.200 215.065 C 191.379 216.076,208.621 216.076,213.800 215.065 C 247.282 208.525,271.434 187.840,281.829 156.800 C 284.911 147.597,285.768 141.765,285.768 130.000 C 285.768 119.416,285.593 117.758,283.598 109.400 C 273.851 68.581,233.488 39.934,191.800 44.246 M206.800 119.825 C 245.349 127.849,247.674 180.345,210.000 192.060 C 206.369 193.189,194.857 193.438,191.600 192.459 C 181.253 189.347,175.096 185.185,169.730 177.677 C 168.033 175.303,164.800 168.992,164.800 168.055 C 164.800 167.820,164.542 166.857,164.226 165.914 C 156.003 141.361,180.880 114.430,206.800 119.825 M31.600 304.715 C 31.600 305.133,35.334 308.800,35.760 308.800 C 35.943 308.800,37.288 309.835,38.748 311.100 C 41.367 313.368,42.422 314.145,43.600 314.675 C 43.930 314.823,44.516 315.301,44.903 315.737 C 45.560 316.478,46.589 317.181,48.000 317.855 C 48.330 318.013,48.690 318.263,48.800 318.411 C 49.062 318.764,52.252 320.641,53.873 321.395 C 54.573 321.721,55.257 322.168,55.393 322.389 C 55.529 322.609,57.027 323.447,58.720 324.252 C 60.414 325.056,62.077 325.952,62.416 326.243 C 63.233 326.945,67.675 329.188,68.260 329.195 C 68.513 329.198,70.129 329.920,71.849 330.800 C 73.570 331.680,75.298 332.400,75.689 332.400 C 76.080 332.400,76.400 332.566,76.400 332.768 C 76.400 332.971,76.940 333.255,77.600 333.400 C 78.260 333.545,78.800 333.829,78.800 334.032 C 78.800 334.234,79.210 334.400,79.711 334.400 C 80.212 334.400,80.977 334.647,81.411 334.949 C 81.845 335.251,82.818 335.632,83.573 335.797 C 84.328 335.961,85.529 336.423,86.243 336.824 C 86.956 337.225,88.185 337.674,88.974 337.822 C 89.763 337.970,90.501 338.240,90.614 338.422 C 90.726 338.605,91.624 338.875,92.609 339.022 C 93.594 339.170,94.400 339.430,94.400 339.600 C 94.400 339.770,95.206 340.030,96.191 340.178 C 97.176 340.325,98.076 340.600,98.193 340.788 C 98.309 340.976,99.168 341.246,100.102 341.388 C 101.704 341.631,102.875 342.021,104.509 342.856 C 104.899 343.055,106.024 343.328,107.009 343.463 C 107.994 343.598,108.800 343.847,108.800 344.015 C 108.800 344.184,109.880 344.447,111.201 344.600 C 112.521 344.753,113.689 345.020,113.795 345.193 C 113.902 345.365,114.979 345.630,116.188 345.781 C 117.398 345.932,118.491 346.223,118.617 346.428 C 118.744 346.633,119.366 346.800,120.000 346.800 C 120.634 346.800,121.251 346.959,121.371 347.153 C 121.491 347.347,122.759 347.631,124.190 347.784 C 125.621 347.937,126.887 348.217,127.003 348.405 C 127.119 348.592,128.655 348.872,130.416 349.026 C 132.177 349.179,133.705 349.446,133.811 349.619 C 133.918 349.791,135.399 350.059,137.103 350.214 C 138.806 350.369,140.380 350.635,140.600 350.804 C 140.820 350.973,142.846 351.241,145.103 351.399 C 147.360 351.557,149.306 351.847,149.427 352.043 C 149.548 352.240,150.681 352.400,151.944 352.400 C 153.207 352.400,154.411 352.567,154.620 352.772 C 154.829 352.977,157.430 353.270,160.400 353.424 C 163.370 353.577,165.993 353.855,166.229 354.041 C 166.465 354.227,171.197 354.503,176.745 354.654 C 182.293 354.805,186.925 355.079,187.040 355.264 C 187.311 355.703,213.200 355.703,213.200 355.264 C 213.200 355.079,217.703 354.809,223.207 354.663 C 228.711 354.517,233.526 354.226,233.907 354.016 C 234.288 353.806,237.075 353.518,240.100 353.376 C 243.125 353.234,245.600 352.956,245.600 352.759 C 245.600 352.562,246.669 352.400,247.976 352.400 C 249.283 352.400,250.450 352.243,250.568 352.052 C 250.686 351.861,252.632 351.574,254.891 351.415 C 257.151 351.256,259.180 350.984,259.400 350.811 C 259.620 350.638,261.194 350.369,262.897 350.214 C 264.601 350.059,266.082 349.791,266.189 349.619 C 266.295 349.446,267.823 349.179,269.584 349.026 C 271.345 348.872,272.881 348.592,272.997 348.405 C 273.113 348.217,274.379 347.937,275.810 347.784 C 277.241 347.631,278.509 347.347,278.629 347.153 C 278.749 346.959,279.366 346.800,280.000 346.800 C 280.634 346.800,281.256 346.633,281.383 346.428 C 281.509 346.223,282.602 345.932,283.812 345.781 C 285.021 345.630,286.098 345.365,286.205 345.193 C 286.311 345.020,287.479 344.753,288.799 344.600 C 290.120 344.447,291.200 344.180,291.200 344.007 C 291.200 343.834,292.190 343.568,293.400 343.417 C 294.610 343.266,295.600 342.975,295.600 342.771 C 295.600 342.567,296.039 342.400,296.576 342.400 C 297.113 342.400,297.651 342.241,297.771 342.046 C 297.892 341.852,298.798 341.571,299.786 341.423 C 300.773 341.275,301.680 340.995,301.800 340.800 C 301.920 340.605,302.824 340.325,303.809 340.178 C 304.794 340.030,305.600 339.770,305.600 339.600 C 305.600 339.430,306.406 339.170,307.391 339.022 C 308.376 338.875,309.274 338.605,309.386 338.422 C 309.499 338.240,310.237 337.970,311.026 337.822 C 311.815 337.674,313.044 337.225,313.757 336.824 C 314.471 336.423,315.672 335.961,316.427 335.797 C 317.182 335.632,318.155 335.251,318.589 334.949 C 319.023 334.647,319.788 334.400,320.289 334.400 C 320.790 334.400,321.200 334.220,321.200 334.000 C 321.200 333.780,321.398 333.600,321.640 333.600 C 322.169 333.600,323.949 332.821,328.148 330.752 C 329.879 329.898,331.468 329.200,331.679 329.200 C 332.267 329.200,337.925 326.415,338.071 326.054 C 338.142 325.879,339.586 325.073,341.280 324.262 C 342.973 323.452,344.471 322.609,344.607 322.389 C 344.743 322.168,345.427 321.721,346.127 321.395 C 347.635 320.694,350.915 318.783,351.200 318.440 C 351.490 318.092,352.863 317.257,353.860 316.824 C 354.332 316.619,354.962 316.112,355.260 315.699 C 355.557 315.286,356.070 314.822,356.400 314.669 C 357.995 313.930,362.687 310.290,363.320 309.300 C 363.496 309.025,363.863 308.800,364.135 308.800 C 364.652 308.800,368.400 305.185,368.400 304.686 C 368.400 304.529,292.620 304.400,200.000 304.400 C 107.380 304.400,31.600 304.542,31.600 304.715 " stroke="none" fill="#fbfbfb" fill-rule="evenodd"></path><path id="path1" d="M194.800 119.866 C 175.101 122.589,160.241 142.687,163.795 161.800 C 171.363 202.501,227.699 203.346,236.024 162.883 C 240.946 138.960,219.391 116.467,194.800 119.866 " stroke="none" fill="#040404" fill-rule="evenodd"></path><path id="path2" d="M186.800 13.136 C 186.800 13.321,182.173 13.595,176.519 13.744 C 170.864 13.893,166.139 14.167,166.019 14.352 C 165.898 14.536,163.190 14.816,160.000 14.974 C 156.810 15.131,154.140 15.427,154.067 15.630 C 153.993 15.834,152.868 16.000,151.567 16.000 C 150.265 16.000,149.200 16.160,149.200 16.356 C 149.200 16.552,147.220 16.842,144.800 17.000 C 142.380 17.158,140.400 17.426,140.400 17.596 C 140.400 17.766,138.870 18.033,137.000 18.189 C 135.130 18.344,133.600 18.610,133.600 18.778 C 133.600 18.947,132.121 19.208,130.313 19.359 C 128.506 19.510,126.931 19.787,126.813 19.975 C 126.696 20.163,125.382 20.447,123.894 20.606 C 122.406 20.764,121.091 21.053,120.971 21.247 C 120.851 21.441,120.223 21.600,119.576 21.600 C 118.929 21.600,118.400 21.762,118.400 21.961 C 118.400 22.159,117.320 22.447,116.000 22.600 C 114.680 22.753,113.600 23.020,113.600 23.193 C 113.600 23.365,112.430 23.632,111.000 23.785 C 109.570 23.938,108.400 24.209,108.400 24.386 C 108.400 24.563,107.410 24.832,106.200 24.983 C 104.990 25.134,104.000 25.425,104.000 25.629 C 104.000 25.833,103.640 26.000,103.200 26.000 C 102.760 26.000,102.400 26.155,102.400 26.344 C 102.400 26.534,101.469 26.799,100.330 26.934 C 99.192 27.069,98.157 27.346,98.030 27.550 C 97.904 27.754,96.945 28.050,95.900 28.206 C 94.855 28.363,94.000 28.639,94.000 28.821 C 94.000 29.002,93.190 29.272,92.200 29.421 C 91.210 29.569,90.400 29.830,90.400 30.000 C 90.400 30.170,89.590 30.431,88.600 30.579 C 87.610 30.728,86.800 31.018,86.800 31.225 C 86.800 31.431,86.440 31.600,86.000 31.600 C 85.560 31.600,85.200 31.769,85.200 31.975 C 85.200 32.182,84.390 32.472,83.400 32.621 C 82.410 32.769,81.600 33.048,81.600 33.241 C 81.600 33.433,80.880 33.706,80.000 33.846 C 79.120 33.987,78.400 34.245,78.400 34.419 C 78.400 34.594,77.860 34.855,77.200 35.000 C 76.540 35.145,76.000 35.429,76.000 35.632 C 76.000 35.834,75.550 36.000,75.000 36.000 C 74.450 36.000,74.000 36.166,74.000 36.368 C 74.000 36.571,73.460 36.855,72.800 37.000 C 72.140 37.145,71.600 37.415,71.600 37.600 C 71.600 37.785,71.060 38.055,70.400 38.200 C 69.740 38.345,69.200 38.606,69.200 38.781 C 69.200 38.955,68.480 39.213,67.600 39.354 C 66.720 39.494,66.000 39.773,66.000 39.973 C 66.000 40.173,65.460 40.455,64.800 40.600 C 64.140 40.745,63.600 41.029,63.600 41.232 C 63.600 41.434,63.330 41.600,63.000 41.600 C 62.670 41.600,62.400 41.777,62.400 41.992 C 62.400 42.208,61.950 42.498,61.400 42.636 C 60.850 42.774,60.400 43.033,60.400 43.212 C 60.400 43.390,59.860 43.655,59.200 43.800 C 58.540 43.945,58.000 44.221,58.000 44.414 C 58.000 44.606,57.376 44.881,56.614 45.024 C 55.778 45.181,55.135 45.574,54.996 46.014 C 54.868 46.416,54.232 46.861,53.582 47.004 C 52.932 47.147,52.400 47.426,52.400 47.624 C 52.400 47.822,51.950 48.098,51.400 48.236 C 50.850 48.374,50.400 48.628,50.400 48.800 C 50.400 48.972,49.950 49.226,49.400 49.364 C 48.850 49.502,48.400 49.792,48.400 50.008 C 48.400 50.223,48.124 50.400,47.787 50.400 C 47.451 50.400,47.071 50.670,46.945 51.000 C 46.818 51.330,46.455 51.600,46.138 51.600 C 45.821 51.600,45.145 52.050,44.635 52.600 C 44.125 53.150,43.498 53.600,43.242 53.600 C 42.985 53.600,42.671 53.870,42.545 54.200 C 42.418 54.530,42.001 54.800,41.617 54.800 C 41.233 54.800,40.506 55.340,40.000 56.000 C 39.494 56.660,38.913 57.200,38.709 57.200 C 38.505 57.200,37.798 57.740,37.138 58.400 C 36.478 59.060,35.769 59.600,35.562 59.600 C 34.951 59.600,22.915 71.809,22.625 72.723 C 22.479 73.183,22.008 73.670,21.580 73.806 C 21.151 73.943,20.800 74.284,20.800 74.566 C 20.800 74.847,20.440 75.493,20.000 76.000 C 19.560 76.507,19.200 77.146,19.200 77.418 C 19.200 77.691,18.930 78.018,18.600 78.145 C 18.270 78.271,18.000 78.651,18.000 78.987 C 18.000 79.324,17.840 79.600,17.643 79.600 C 17.447 79.600,17.174 80.050,17.036 80.600 C 16.898 81.150,16.608 81.600,16.392 81.600 C 16.177 81.600,16.000 81.870,16.000 82.200 C 16.000 82.530,15.834 82.800,15.632 82.800 C 15.429 82.800,15.145 83.340,15.000 84.000 C 14.855 84.660,14.591 85.200,14.413 85.200 C 14.235 85.200,13.971 85.830,13.826 86.600 C 13.682 87.370,13.403 88.000,13.206 88.000 C 13.010 88.000,12.728 88.810,12.579 89.800 C 12.431 90.790,12.150 91.600,11.955 91.600 C 11.760 91.600,11.600 91.870,11.600 92.200 C 11.600 92.530,11.438 92.800,11.239 92.800 C 11.041 92.800,10.749 93.925,10.591 95.300 C 10.433 96.675,10.100 97.928,9.852 98.085 C 9.203 98.495,9.203 301.505,9.852 301.915 C 10.100 302.072,10.433 303.325,10.591 304.700 C 10.749 306.075,11.041 307.200,11.239 307.200 C 11.438 307.200,11.600 307.470,11.600 307.800 C 11.600 308.130,11.760 308.400,11.955 308.400 C 12.150 308.400,12.431 309.210,12.579 310.200 C 12.728 311.190,12.998 312.000,13.180 312.000 C 13.362 312.000,13.629 312.630,13.774 313.400 C 13.918 314.170,14.194 314.800,14.386 314.800 C 14.579 314.800,14.855 315.340,15.000 316.000 C 15.145 316.660,15.429 317.200,15.632 317.200 C 15.834 317.200,16.000 317.470,16.000 317.800 C 16.000 318.130,16.177 318.400,16.392 318.400 C 16.608 318.400,16.898 318.850,17.036 319.400 C 17.174 319.950,17.447 320.400,17.643 320.400 C 17.840 320.400,18.000 320.676,18.000 321.013 C 18.000 321.349,18.270 321.729,18.600 321.855 C 18.930 321.982,19.200 322.386,19.200 322.754 C 19.200 323.121,19.560 323.730,20.000 324.107 C 20.440 324.484,20.800 325.052,20.800 325.369 C 20.800 325.686,21.151 326.057,21.580 326.194 C 22.008 326.330,22.479 326.820,22.627 327.284 C 22.925 328.223,34.914 340.400,35.541 340.400 C 35.760 340.400,36.478 340.940,37.138 341.600 C 37.798 342.260,38.487 342.808,38.669 342.817 C 38.851 342.826,39.442 343.366,39.981 344.017 C 40.521 344.668,41.267 345.200,41.638 345.200 C 42.010 345.200,42.418 345.470,42.545 345.800 C 42.671 346.130,43.008 346.400,43.293 346.400 C 43.577 346.400,44.148 346.850,44.561 347.400 C 44.974 347.950,45.628 348.400,46.013 348.400 C 46.399 348.400,46.818 348.670,46.945 349.000 C 47.071 349.330,47.451 349.600,47.787 349.600 C 48.124 349.600,48.400 349.777,48.400 349.992 C 48.400 350.208,48.850 350.498,49.400 350.636 C 49.950 350.774,50.400 351.028,50.400 351.200 C 50.400 351.372,50.850 351.626,51.400 351.764 C 51.950 351.902,52.400 352.192,52.400 352.408 C 52.400 352.623,52.670 352.800,53.000 352.800 C 53.330 352.800,53.600 352.980,53.600 353.200 C 53.600 353.420,53.876 353.600,54.213 353.600 C 54.549 353.600,54.922 353.852,55.040 354.161 C 55.159 354.469,55.873 354.837,56.628 354.979 C 57.382 355.120,58.000 355.394,58.000 355.586 C 58.000 355.779,58.540 356.055,59.200 356.200 C 59.860 356.345,60.400 356.629,60.400 356.832 C 60.400 357.034,60.670 357.200,61.000 357.200 C 61.330 357.200,61.600 357.377,61.600 357.592 C 61.600 357.808,62.050 358.098,62.600 358.236 C 63.150 358.374,63.600 358.633,63.600 358.812 C 63.600 358.990,64.140 359.255,64.800 359.400 C 65.460 359.545,66.000 359.827,66.000 360.027 C 66.000 360.227,66.720 360.506,67.600 360.646 C 68.480 360.787,69.200 361.045,69.200 361.219 C 69.200 361.394,69.740 361.655,70.400 361.800 C 71.060 361.945,71.600 362.229,71.600 362.432 C 71.600 362.634,71.870 362.800,72.200 362.800 C 72.530 362.800,72.800 362.978,72.800 363.195 C 72.800 363.413,73.520 363.706,74.400 363.846 C 75.280 363.987,76.000 364.245,76.000 364.419 C 76.000 364.594,76.540 364.855,77.200 365.000 C 77.860 365.145,78.400 365.406,78.400 365.581 C 78.400 365.755,79.120 366.013,80.000 366.154 C 80.880 366.294,81.600 366.587,81.600 366.805 C 81.600 367.022,82.050 367.200,82.600 367.200 C 83.150 367.200,83.600 367.364,83.600 367.565 C 83.600 367.766,84.320 368.051,85.200 368.200 C 86.080 368.349,86.800 368.623,86.800 368.811 C 86.800 368.998,87.610 369.272,88.600 369.421 C 89.590 369.569,90.400 369.830,90.400 370.000 C 90.400 370.170,91.210 370.431,92.200 370.579 C 93.190 370.728,94.000 371.001,94.000 371.187 C 94.000 371.373,94.900 371.649,96.000 371.800 C 97.100 371.951,98.000 372.238,98.000 372.438 C 98.000 372.637,98.360 372.800,98.800 372.800 C 99.240 372.800,99.600 372.955,99.600 373.144 C 99.600 373.334,100.531 373.599,101.670 373.734 C 102.808 373.869,103.847 374.152,103.977 374.363 C 104.108 374.575,105.157 374.873,106.308 375.025 C 107.458 375.178,108.400 375.446,108.400 375.620 C 108.400 375.794,109.570 376.062,111.000 376.215 C 112.430 376.368,113.600 376.652,113.600 376.847 C 113.600 377.041,114.140 377.200,114.800 377.200 C 115.460 377.200,116.000 377.362,116.000 377.561 C 116.000 377.759,117.080 378.047,118.400 378.200 C 119.720 378.353,120.800 378.618,120.800 378.788 C 120.800 378.958,122.104 379.225,123.697 379.382 C 125.291 379.539,126.692 379.825,126.811 380.017 C 126.929 380.210,128.506 380.490,130.313 380.641 C 132.121 380.792,133.600 381.053,133.600 381.222 C 133.600 381.390,135.130 381.656,137.000 381.811 C 138.870 381.967,140.400 382.253,140.400 382.447 C 140.400 382.641,141.390 382.800,142.600 382.800 C 143.810 382.800,144.800 382.960,144.800 383.156 C 144.800 383.352,146.825 383.644,149.300 383.804 C 151.775 383.964,153.891 384.239,154.003 384.415 C 154.115 384.590,156.815 384.864,160.003 385.023 C 163.191 385.182,165.898 385.464,166.019 385.648 C 166.139 385.833,170.864 386.107,176.519 386.256 C 182.173 386.405,186.800 386.679,186.800 386.864 C 186.800 387.049,192.830 387.200,200.200 387.200 C 207.570 387.200,213.600 387.049,213.600 386.864 C 213.600 386.678,218.137 386.404,223.683 386.253 C 229.228 386.102,233.863 385.829,233.983 385.646 C 234.102 385.462,236.809 385.182,239.997 385.023 C 243.185 384.864,245.885 384.590,245.997 384.415 C 246.109 384.239,248.225 383.964,250.700 383.804 C 253.175 383.644,255.200 383.352,255.200 383.156 C 255.200 382.960,256.190 382.800,257.400 382.800 C 258.610 382.800,259.600 382.646,259.600 382.458 C 259.600 382.269,261.079 381.992,262.887 381.841 C 264.694 381.690,266.269 381.418,266.387 381.235 C 266.504 381.053,268.175 380.774,270.100 380.616 C 272.025 380.458,273.600 380.175,273.600 379.988 C 273.600 379.801,274.860 379.524,276.400 379.373 C 277.940 379.221,279.200 378.958,279.200 378.788 C 279.200 378.618,280.280 378.353,281.600 378.200 C 282.920 378.047,284.000 377.759,284.000 377.561 C 284.000 377.362,284.540 377.200,285.200 377.200 C 285.860 377.200,286.400 377.041,286.400 376.847 C 286.400 376.652,287.570 376.368,289.000 376.215 C 290.430 376.062,291.600 375.791,291.600 375.614 C 291.600 375.437,292.590 375.168,293.800 375.017 C 295.010 374.866,296.000 374.588,296.000 374.400 C 296.000 374.212,296.990 373.934,298.200 373.783 C 299.410 373.632,300.400 373.349,300.400 373.154 C 300.400 372.959,300.760 372.800,301.200 372.800 C 301.640 372.800,302.000 372.637,302.000 372.438 C 302.000 372.238,302.900 371.951,304.000 371.800 C 305.100 371.649,306.000 371.382,306.000 371.208 C 306.000 371.034,306.810 370.769,307.800 370.621 C 308.790 370.472,309.600 370.199,309.600 370.013 C 309.600 369.827,310.500 369.551,311.600 369.400 C 312.700 369.249,313.600 368.970,313.600 368.781 C 313.600 368.591,314.230 368.318,315.000 368.174 C 315.770 368.029,316.400 367.751,316.400 367.555 C 316.400 367.360,316.850 367.200,317.400 367.200 C 317.950 367.200,318.400 367.022,318.400 366.805 C 318.400 366.587,319.120 366.294,320.000 366.154 C 320.880 366.013,321.600 365.755,321.600 365.581 C 321.600 365.406,322.140 365.145,322.800 365.000 C 323.460 364.855,324.000 364.594,324.000 364.419 C 324.000 364.245,324.720 363.987,325.600 363.846 C 326.480 363.706,327.200 363.413,327.200 363.195 C 327.200 362.978,327.470 362.800,327.800 362.800 C 328.130 362.800,328.400 362.634,328.400 362.432 C 328.400 362.229,328.940 361.945,329.600 361.800 C 330.260 361.655,330.800 361.394,330.800 361.219 C 330.800 361.045,331.520 360.787,332.400 360.646 C 333.280 360.506,334.000 360.227,334.000 360.027 C 334.000 359.827,334.540 359.545,335.200 359.400 C 335.860 359.255,336.400 358.971,336.400 358.768 C 336.400 358.566,336.766 358.400,337.213 358.400 C 337.659 358.400,338.129 358.130,338.255 357.800 C 338.382 357.470,338.736 357.200,339.043 357.200 C 339.349 357.200,339.600 357.034,339.600 356.832 C 339.600 356.629,340.140 356.345,340.800 356.200 C 341.460 356.055,342.000 355.791,342.000 355.613 C 342.000 355.435,342.613 355.174,343.361 355.034 C 344.110 354.893,344.824 354.513,344.949 354.189 C 345.073 353.865,345.451 353.600,345.787 353.600 C 346.124 353.600,346.400 353.420,346.400 353.200 C 346.400 352.980,346.741 352.800,347.157 352.800 C 347.574 352.800,348.018 352.530,348.145 352.200 C 348.271 351.870,348.651 351.600,348.987 351.600 C 349.324 351.600,349.600 351.420,349.600 351.200 C 349.600 350.980,349.857 350.800,350.171 350.800 C 350.486 350.800,350.989 350.554,351.290 350.253 C 351.591 349.952,352.234 349.580,352.719 349.426 C 353.203 349.272,353.600 348.978,353.600 348.773 C 353.600 348.568,353.845 348.400,354.144 348.400 C 354.443 348.400,355.018 347.961,355.421 347.424 C 355.824 346.887,356.569 346.344,357.077 346.216 C 357.585 346.089,358.000 345.808,358.000 345.592 C 358.000 345.377,358.233 345.200,358.519 345.200 C 358.804 345.200,359.479 344.668,360.019 344.017 C 360.558 343.366,361.143 342.826,361.317 342.817 C 361.682 342.797,362.566 342.108,363.517 341.100 C 363.880 340.715,364.337 340.400,364.532 340.400 C 364.948 340.400,377.200 328.187,377.200 327.772 C 377.200 327.618,377.629 327.094,378.153 326.608 C 378.677 326.122,379.224 325.353,379.368 324.899 C 379.513 324.445,379.894 323.973,380.215 323.850 C 380.537 323.726,380.800 323.279,380.800 322.855 C 380.800 322.432,381.070 321.982,381.400 321.855 C 381.730 321.729,382.000 321.349,382.000 321.013 C 382.000 320.676,382.180 320.400,382.400 320.400 C 382.620 320.400,382.800 320.130,382.800 319.800 C 382.800 319.470,382.977 319.200,383.192 319.200 C 383.408 319.200,383.698 318.750,383.836 318.200 C 383.974 317.650,384.233 317.200,384.412 317.200 C 384.590 317.200,384.855 316.660,385.000 316.000 C 385.145 315.340,385.421 314.800,385.614 314.800 C 385.806 314.800,386.082 314.170,386.226 313.400 C 386.371 312.630,386.649 312.000,386.845 312.000 C 387.040 312.000,387.200 311.640,387.200 311.200 C 387.200 310.760,387.357 310.400,387.549 310.400 C 387.741 310.400,388.013 309.680,388.154 308.800 C 388.294 307.920,388.570 307.200,388.765 307.200 C 388.961 307.200,389.251 306.075,389.409 304.700 C 389.567 303.325,389.900 302.072,390.148 301.915 C 390.482 301.704,390.600 275.098,390.600 200.000 C 390.600 124.902,390.482 98.296,390.148 98.085 C 389.900 97.928,389.567 96.675,389.409 95.300 C 389.251 93.925,388.961 92.800,388.765 92.800 C 388.570 92.800,388.294 92.080,388.154 91.200 C 388.013 90.320,387.741 89.600,387.549 89.600 C 387.357 89.600,387.200 89.240,387.200 88.800 C 387.200 88.360,387.028 88.000,386.818 88.000 C 386.608 88.000,386.318 87.370,386.174 86.600 C 386.029 85.830,385.771 85.200,385.599 85.200 C 385.427 85.200,385.163 84.707,385.012 84.104 C 384.860 83.501,384.616 82.916,384.468 82.804 C 384.064 82.497,383.207 81.091,382.942 80.300 C 382.812 79.915,382.548 79.600,382.353 79.600 C 382.159 79.600,382.000 79.324,382.000 78.987 C 382.000 78.651,381.730 78.271,381.400 78.145 C 381.070 78.018,380.800 77.691,380.800 77.418 C 380.800 77.146,380.440 76.507,380.000 76.000 C 379.560 75.493,379.200 74.917,379.200 74.720 C 379.200 74.523,378.750 73.945,378.200 73.435 C 377.650 72.925,377.200 72.384,377.200 72.232 C 377.200 71.835,364.910 59.600,364.511 59.600 C 364.328 59.600,363.880 59.285,363.517 58.900 C 362.515 57.839,361.673 57.200,361.277 57.200 C 361.080 57.200,360.506 56.660,360.000 56.000 C 359.494 55.340,358.837 54.800,358.540 54.800 C 358.243 54.800,358.000 54.632,358.000 54.427 C 358.000 54.222,357.595 53.927,357.100 53.771 C 356.605 53.616,355.828 53.109,355.374 52.644 C 354.517 51.768,353.433 50.993,352.400 50.520 C 352.070 50.369,351.562 50.010,351.271 49.722 C 350.981 49.435,350.486 49.200,350.171 49.200 C 349.857 49.200,349.600 49.020,349.600 48.800 C 349.600 48.580,349.324 48.400,348.987 48.400 C 348.651 48.400,348.278 48.148,348.160 47.839 C 348.041 47.531,347.337 47.165,346.595 47.025 C 345.757 46.868,345.152 46.479,345.000 46.000 C 344.847 45.517,344.240 45.131,343.377 44.969 C 342.620 44.827,342.000 44.565,342.000 44.387 C 342.000 44.209,341.460 43.945,340.800 43.800 C 340.140 43.655,339.600 43.371,339.600 43.168 C 339.600 42.966,339.324 42.800,338.987 42.800 C 338.651 42.800,338.271 42.530,338.145 42.200 C 338.018 41.870,337.574 41.600,337.157 41.600 C 336.741 41.600,336.400 41.434,336.400 41.232 C 336.400 41.029,335.860 40.745,335.200 40.600 C 334.540 40.455,334.000 40.173,334.000 39.973 C 334.000 39.773,333.280 39.494,332.400 39.354 C 331.520 39.213,330.800 38.955,330.800 38.781 C 330.800 38.606,330.260 38.345,329.600 38.200 C 328.940 38.055,328.400 37.785,328.400 37.600 C 328.400 37.415,327.860 37.145,327.200 37.000 C 326.540 36.855,326.000 36.571,326.000 36.368 C 326.000 36.166,325.550 36.000,325.000 36.000 C 324.450 36.000,324.000 35.834,324.000 35.632 C 324.000 35.429,323.460 35.145,322.800 35.000 C 322.140 34.855,321.600 34.594,321.600 34.419 C 321.600 34.245,320.880 33.987,320.000 33.846 C 319.120 33.706,318.400 33.433,318.400 33.241 C 318.400 33.048,317.590 32.769,316.600 32.621 C 315.610 32.472,314.800 32.226,314.800 32.073 C 314.800 31.665,312.676 30.795,311.030 30.527 C 310.243 30.400,309.600 30.150,309.600 29.972 C 309.600 29.794,308.790 29.528,307.800 29.379 C 306.810 29.231,306.000 28.966,306.000 28.792 C 306.000 28.618,305.100 28.351,304.000 28.200 C 302.900 28.049,302.000 27.768,302.000 27.576 C 302.000 27.384,301.100 27.108,300.000 26.962 C 298.900 26.816,298.000 26.540,298.000 26.348 C 298.000 26.157,297.550 26.000,297.000 26.000 C 296.450 26.000,296.000 25.833,296.000 25.629 C 296.000 25.425,295.010 25.134,293.800 24.983 C 292.590 24.832,291.600 24.563,291.600 24.386 C 291.600 24.209,290.430 23.938,289.000 23.785 C 287.570 23.632,286.400 23.365,286.400 23.193 C 286.400 23.020,285.320 22.753,284.000 22.600 C 282.680 22.447,281.600 22.159,281.600 21.961 C 281.600 21.762,281.060 21.600,280.400 21.600 C 279.740 21.600,279.200 21.443,279.200 21.252 C 279.200 21.060,277.940 20.779,276.400 20.627 C 274.860 20.476,273.600 20.199,273.600 20.012 C 273.600 19.825,272.025 19.542,270.100 19.384 C 268.175 19.226,266.504 18.947,266.387 18.765 C 266.269 18.582,264.694 18.310,262.887 18.159 C 261.079 18.008,259.600 17.751,259.600 17.586 C 259.600 17.422,257.620 17.158,255.200 17.000 C 252.780 16.842,250.800 16.552,250.800 16.356 C 250.800 16.160,249.735 16.000,248.433 16.000 C 247.132 16.000,246.007 15.834,245.933 15.630 C 245.860 15.427,243.190 15.131,240.000 14.974 C 236.810 14.816,234.102 14.538,233.983 14.354 C 233.863 14.171,229.228 13.898,223.683 13.747 C 218.137 13.596,213.600 13.322,213.600 13.136 C 213.600 12.951,207.570 12.800,200.200 12.800 C 192.830 12.800,186.800 12.951,186.800 13.136 M212.800 44.351 C 223.740 46.088,240.942 52.392,245.231 56.234 C 245.579 56.545,245.975 56.800,246.112 56.800 C 246.341 56.800,250.988 59.952,252.400 61.064 C 260.130 67.153,266.336 73.652,271.337 80.898 C 272.362 82.382,273.200 83.718,273.200 83.867 C 273.200 84.015,273.457 84.421,273.770 84.769 C 274.791 85.898,279.418 95.307,280.770 99.000 C 281.495 100.980,282.245 102.960,282.437 103.400 C 282.629 103.840,282.956 104.920,283.163 105.800 C 283.371 106.680,283.890 108.840,284.318 110.600 C 285.936 117.258,286.200 119.979,286.200 130.000 C 286.200 140.021,285.936 142.742,284.318 149.400 C 283.890 151.160,283.371 153.320,283.163 154.200 C 282.956 155.080,282.628 156.160,282.435 156.600 C 282.242 157.040,281.782 158.300,281.411 159.400 C 281.041 160.500,280.582 161.760,280.391 162.200 C 280.200 162.640,279.674 163.845,279.222 164.878 C 278.770 165.911,278.400 166.829,278.400 166.919 C 278.400 167.319,273.822 175.414,273.529 175.533 C 273.348 175.607,273.200 175.830,273.200 176.029 C 273.200 177.370,266.344 186.004,261.174 191.174 C 256.004 196.344,247.370 203.200,246.029 203.200 C 245.830 203.200,245.607 203.348,245.533 203.529 C 245.414 203.822,237.319 208.400,236.919 208.400 C 236.829 208.400,235.911 208.770,234.878 209.222 C 233.845 209.674,232.640 210.200,232.200 210.391 C 231.760 210.582,230.500 211.041,229.400 211.411 C 228.300 211.782,227.040 212.242,226.600 212.435 C 226.160 212.628,225.080 212.956,224.200 213.163 C 223.320 213.371,221.160 213.890,219.400 214.318 C 212.742 215.936,210.021 216.200,200.000 216.200 C 189.979 216.200,187.258 215.936,180.600 214.318 C 178.840 213.890,176.680 213.371,175.800 213.163 C 174.920 212.956,173.840 212.629,173.400 212.437 C 172.960 212.245,170.980 211.495,169.000 210.770 C 165.307 209.418,155.898 204.791,154.769 203.770 C 154.421 203.457,154.015 203.200,153.867 203.200 C 153.718 203.200,152.382 202.362,150.898 201.337 C 143.652 196.336,137.153 190.130,131.064 182.400 C 129.952 180.988,126.800 176.341,126.800 176.112 C 126.800 175.975,126.545 175.579,126.234 175.231 C 125.363 174.259,120.691 164.940,119.500 161.800 C 115.037 150.029,113.796 143.050,113.810 129.800 C 113.822 118.383,114.620 112.920,117.670 103.400 C 126.055 77.221,147.221 56.055,173.400 47.670 C 178.793 45.942,180.794 45.479,186.800 44.567 C 188.890 44.250,190.780 43.911,191.000 43.813 C 191.826 43.447,209.921 43.894,212.800 44.351 M368.624 304.438 C 368.898 304.882,365.340 308.800,364.662 308.800 C 364.460 308.800,363.700 309.430,362.974 310.200 C 362.248 310.970,361.495 311.600,361.302 311.600 C 361.108 311.600,360.432 312.140,359.800 312.800 C 359.168 313.460,358.471 314.000,358.251 314.000 C 358.031 314.000,356.998 314.720,355.954 315.600 C 354.910 316.480,353.946 317.200,353.812 317.200 C 353.582 317.200,351.233 318.763,350.800 319.204 C 350.690 319.316,349.925 319.762,349.100 320.195 C 348.275 320.628,347.600 321.107,347.600 321.259 C 347.600 321.412,347.060 321.655,346.400 321.800 C 345.740 321.945,345.200 322.217,345.200 322.405 C 345.200 322.593,344.795 322.872,344.300 323.027 C 343.805 323.181,343.310 323.425,343.200 323.568 C 343.090 323.711,341.785 324.443,340.300 325.196 C 338.815 325.948,337.600 326.693,337.600 326.850 C 337.600 327.008,337.060 327.255,336.400 327.400 C 335.740 327.545,335.200 327.815,335.200 328.000 C 335.200 328.185,334.660 328.455,334.000 328.600 C 333.340 328.745,332.800 329.029,332.800 329.232 C 332.800 329.434,332.480 329.600,332.089 329.600 C 331.698 329.600,330.028 330.290,328.378 331.134 C 326.727 331.978,324.853 332.800,324.213 332.961 C 323.573 333.122,322.560 333.601,321.963 334.027 C 321.365 334.452,320.634 334.801,320.338 334.802 C 320.042 334.804,319.317 335.057,318.727 335.365 C 318.137 335.673,317.090 336.049,316.400 336.200 C 315.710 336.351,314.663 336.727,314.073 337.035 C 313.483 337.343,312.696 337.596,312.324 337.598 C 311.952 337.599,311.549 337.760,311.428 337.955 C 311.307 338.150,310.555 338.432,309.755 338.582 C 308.956 338.732,308.009 339.009,307.651 339.197 C 306.352 339.881,303.565 340.800,302.792 340.800 C 302.356 340.800,302.000 340.967,302.000 341.171 C 302.000 341.375,301.010 341.666,299.800 341.817 C 298.590 341.968,297.600 342.240,297.600 342.422 C 297.600 342.603,296.790 342.872,295.800 343.021 C 294.810 343.169,294.000 343.450,294.000 343.645 C 294.000 343.840,293.471 344.000,292.824 344.000 C 292.177 344.000,291.547 344.162,291.424 344.361 C 291.302 344.559,290.121 344.847,288.800 345.000 C 287.479 345.153,286.306 345.428,286.193 345.611 C 286.080 345.794,284.998 346.068,283.788 346.219 C 282.579 346.370,281.500 346.638,281.391 346.815 C 281.281 346.992,280.021 347.263,278.590 347.416 C 277.159 347.569,275.899 347.839,275.790 348.016 C 275.681 348.193,274.421 348.463,272.990 348.616 C 271.559 348.769,270.291 349.053,270.171 349.247 C 270.051 349.441,269.164 349.600,268.200 349.600 C 267.236 349.600,266.345 349.765,266.221 349.966 C 266.096 350.167,264.601 350.459,262.897 350.614 C 261.194 350.769,259.620 351.038,259.400 351.211 C 259.180 351.384,257.155 351.655,254.900 351.814 C 252.645 351.973,250.800 352.242,250.800 352.411 C 250.800 352.581,248.550 352.849,245.800 353.008 C 243.050 353.166,240.800 353.455,240.800 353.648 C 240.800 353.842,239.306 354.000,237.480 354.000 C 235.654 354.000,233.981 354.179,233.763 354.397 C 233.537 354.623,229.037 354.909,223.283 355.061 C 217.737 355.208,213.200 355.479,213.200 355.664 C 213.200 355.849,207.260 356.000,200.000 356.000 C 192.740 356.000,186.800 355.849,186.800 355.664 C 186.800 355.479,182.263 355.208,176.717 355.061 C 170.963 354.909,166.463 354.623,166.237 354.397 C 166.019 354.179,164.346 354.000,162.520 354.000 C 160.694 354.000,159.200 353.838,159.200 353.640 C 159.200 353.442,156.950 353.151,154.200 352.992 C 151.450 352.834,149.200 352.569,149.200 352.403 C 149.200 352.238,147.355 351.973,145.100 351.814 C 142.845 351.655,140.820 351.384,140.600 351.211 C 140.380 351.038,138.806 350.769,137.103 350.614 C 135.399 350.459,133.904 350.167,133.779 349.966 C 133.655 349.765,132.764 349.600,131.800 349.600 C 130.836 349.600,129.949 349.441,129.829 349.247 C 129.709 349.053,128.441 348.769,127.010 348.616 C 125.579 348.463,124.321 348.195,124.213 348.021 C 124.106 347.848,122.891 347.578,121.513 347.422 C 120.135 347.266,118.826 346.995,118.604 346.820 C 118.382 346.644,117.300 346.371,116.200 346.213 C 115.100 346.055,114.020 345.787,113.800 345.617 C 113.580 345.448,112.590 345.188,111.600 345.039 C 109.682 344.751,107.437 344.122,106.317 343.558 C 105.942 343.370,104.907 343.099,104.017 342.956 C 103.128 342.814,102.400 342.561,102.400 342.395 C 102.400 342.228,101.410 341.968,100.200 341.817 C 98.990 341.666,98.000 341.375,98.000 341.171 C 98.000 340.967,97.595 340.799,97.100 340.798 C 96.605 340.796,95.684 340.526,95.054 340.198 C 94.424 339.869,93.569 339.600,93.154 339.600 C 92.739 339.600,92.400 339.440,92.400 339.245 C 92.400 339.050,91.594 338.770,90.609 338.622 C 89.624 338.475,88.726 338.205,88.614 338.022 C 88.501 337.840,87.777 337.572,87.004 337.427 C 86.232 337.282,85.600 337.015,85.600 336.833 C 85.600 336.651,84.872 336.386,83.983 336.244 C 83.093 336.101,82.058 335.823,81.683 335.624 C 80.138 334.808,75.628 332.800,75.340 332.800 C 75.169 332.800,73.583 332.103,71.815 331.251 C 67.289 329.069,65.745 328.400,65.240 328.400 C 64.998 328.400,64.800 328.234,64.800 328.032 C 64.800 327.829,64.260 327.545,63.600 327.400 C 62.940 327.255,62.400 327.008,62.400 326.850 C 62.400 326.693,61.185 325.946,59.700 325.191 C 58.215 324.435,56.940 323.678,56.867 323.509 C 56.793 323.339,56.500 323.200,56.216 323.200 C 55.931 323.200,55.483 322.942,55.221 322.626 C 54.959 322.310,54.217 321.936,53.572 321.794 C 52.928 321.652,52.400 321.412,52.400 321.259 C 52.400 321.107,51.725 320.628,50.900 320.195 C 50.075 319.762,49.310 319.316,49.200 319.204 C 48.742 318.737,46.412 317.200,46.162 317.200 C 46.013 317.200,45.507 316.785,45.037 316.278 C 44.567 315.771,43.916 315.232,43.591 315.080 C 42.502 314.573,41.440 313.809,40.285 312.700 C 39.654 312.095,38.960 311.600,38.742 311.600 C 38.525 311.600,37.752 310.970,37.026 310.200 C 36.300 309.430,35.540 308.800,35.338 308.800 C 34.660 308.800,31.102 304.882,31.376 304.438 C 31.572 304.122,78.394 304.000,200.000 304.000 C 321.606 304.000,368.428 304.122,368.624 304.438 " stroke="none" fill="#a40404" fill-rule="evenodd"></path><path id="path3" d="M198.313 43.895 C 199.476 43.976,201.276 43.976,202.313 43.893 C 203.351 43.811,202.400 43.745,200.200 43.746 C 198.000 43.747,197.151 43.814,198.313 43.895 M194.476 119.540 C 193.968 119.683,196.454 119.800,200.000 119.800 C 203.546 119.800,206.032 119.683,205.524 119.540 C 205.016 119.397,202.530 119.280,200.000 119.280 C 197.470 119.280,194.984 119.397,194.476 119.540 M190.000 120.488 C 189.230 120.716,188.783 120.971,189.006 121.054 C 189.229 121.136,190.219 120.951,191.206 120.641 C 192.193 120.332,192.640 120.078,192.200 120.076 C 191.760 120.074,190.770 120.259,190.000 120.488 M207.800 120.341 C 209.028 120.886,211.524 121.313,210.800 120.854 C 210.470 120.644,209.480 120.363,208.600 120.229 C 207.508 120.063,207.254 120.098,207.800 120.341 M183.520 123.119 C 174.531 127.655,168.643 134.326,164.996 144.109 C 164.605 145.159,164.392 146.125,164.523 146.256 C 164.654 146.387,164.887 145.978,165.040 145.347 C 167.365 135.793,175.918 126.825,187.600 121.693 C 188.215 121.423,188.354 121.244,187.962 121.227 C 187.611 121.212,185.612 122.064,183.520 123.119 M212.400 121.688 C 223.957 126.707,232.253 135.238,234.777 144.700 C 235.307 146.686,235.794 147.007,235.384 145.100 C 234.057 138.935,226.904 129.415,220.540 125.344 C 217.811 123.599,212.824 121.191,212.011 121.227 C 211.670 121.242,211.842 121.446,212.400 121.688 M286.154 130.000 C 286.154 132.750,286.218 133.875,286.296 132.500 C 286.374 131.125,286.374 128.875,286.296 127.500 C 286.218 126.125,286.154 127.250,286.154 130.000 M113.746 130.200 C 113.747 132.400,113.814 133.249,113.895 132.087 C 113.976 130.924,113.976 129.124,113.893 128.087 C 113.811 127.049,113.745 128.000,113.746 130.200 M163.886 147.400 C 163.755 147.840,163.555 149.280,163.441 150.600 L 163.235 153.000 163.819 150.205 C 164.367 147.583,164.413 145.635,163.886 147.400 M235.612 147.000 C 235.606 147.220,235.870 148.811,236.200 150.535 C 236.530 152.260,236.833 155.050,236.874 156.735 C 236.940 159.481,236.965 159.571,237.115 157.600 C 237.294 155.233,236.512 148.185,235.960 147.200 C 235.775 146.870,235.619 146.780,235.612 147.000 M162.909 156.400 C 162.909 157.390,162.987 157.795,163.082 157.300 C 163.178 156.805,163.178 155.995,163.082 155.500 C 162.987 155.005,162.909 155.410,162.909 156.400 M163.460 162.000 C 163.586 163.430,163.853 164.870,164.054 165.200 C 164.464 165.872,164.168 163.096,163.584 160.794 C 163.322 159.761,163.290 160.073,163.460 162.000 M236.014 162.900 C 234.148 173.434,227.237 183.078,217.881 188.205 C 214.931 189.821,214.423 190.615,217.261 189.172 C 227.133 184.157,235.259 172.787,236.610 162.100 C 236.999 159.017,236.609 159.541,236.014 162.900 M164.610 167.300 C 166.639 176.947,177.533 188.058,188.200 191.360 C 189.520 191.769,191.022 192.264,191.537 192.460 C 192.052 192.656,193.852 192.894,195.537 192.989 L 198.600 193.162 195.400 192.640 C 180.943 190.283,168.419 179.935,165.214 167.700 C 164.694 165.714,164.209 165.392,164.610 167.300 M211.400 191.063 C 209.860 191.605,206.980 192.303,205.000 192.614 L 201.400 193.180 204.304 193.013 C 207.088 192.853,213.787 191.126,214.580 190.365 C 215.143 189.825,214.549 189.955,211.400 191.063 M197.500 216.296 C 198.875 216.374,201.125 216.374,202.500 216.296 C 203.875 216.218,202.750 216.154,200.000 216.154 C 197.250 216.154,196.125 216.218,197.500 216.296 M96.206 340.410 C 96.306 340.572,96.835 340.790,97.382 340.894 C 97.929 340.999,98.294 340.952,98.194 340.790 C 98.094 340.628,97.565 340.410,97.018 340.306 C 96.471 340.201,96.106 340.248,96.206 340.410 M303.000 340.285 C 301.775 340.580,301.398 341.128,302.576 340.903 C 303.146 340.794,303.710 340.546,303.830 340.352 C 303.949 340.159,303.992 340.021,303.924 340.046 C 303.856 340.072,303.440 340.179,303.000 340.285 M100.000 341.756 C 100.000 341.842,100.617 341.985,101.372 342.073 C 102.127 342.161,102.656 342.090,102.548 341.916 C 102.355 341.603,100.000 341.455,100.000 341.756 M111.600 344.955 C 111.600 345.040,112.130 345.187,112.779 345.282 C 113.427 345.377,113.867 345.308,113.755 345.128 C 113.557 344.807,111.600 344.650,111.600 344.955 M286.245 345.128 C 286.133 345.308,286.573 345.377,287.221 345.282 C 287.870 345.187,288.400 345.040,288.400 344.955 C 288.400 344.650,286.443 344.807,286.245 345.128 M116.341 346.101 C 116.543 346.303,117.133 346.401,117.654 346.319 C 118.455 346.193,118.398 346.137,117.287 345.952 C 116.493 345.821,116.119 345.879,116.341 346.101 M282.600 346.000 L 281.400 346.305 282.476 346.353 C 283.068 346.379,283.664 346.220,283.800 346.000 C 283.936 345.780,283.992 345.621,283.924 345.647 C 283.856 345.673,283.260 345.832,282.600 346.000 M130.600 349.403 C 131.514 349.721,133.929 349.809,133.748 349.516 C 133.641 349.342,132.798 349.214,131.876 349.232 C 130.954 349.249,130.380 349.326,130.600 349.403 M266.252 349.516 C 266.144 349.690,266.718 349.767,267.528 349.687 C 269.742 349.469,270.005 349.267,268.124 349.232 C 267.202 349.214,266.359 349.342,266.252 349.516 M137.900 350.682 C 138.395 350.778,139.205 350.778,139.700 350.682 C 140.195 350.587,139.790 350.509,138.800 350.509 C 137.810 350.509,137.405 350.587,137.900 350.682 M260.300 350.682 C 260.795 350.778,261.605 350.778,262.100 350.682 C 262.595 350.587,262.190 350.509,261.200 350.509 C 260.210 350.509,259.805 350.587,260.300 350.682 M145.119 351.663 C 145.274 351.808,146.336 351.988,147.481 352.063 C 148.625 352.138,149.435 352.082,149.281 351.937 C 149.126 351.792,148.064 351.612,146.919 351.537 C 145.775 351.462,144.965 351.518,145.119 351.663 M250.657 351.907 C 250.553 352.076,251.217 352.157,252.134 352.086 C 254.825 351.879,255.153 351.696,252.924 351.646 C 251.782 351.621,250.762 351.738,250.657 351.907 M173.919 354.880 C 174.073 355.034,177.117 355.214,180.681 355.280 C 184.246 355.346,187.036 355.274,186.881 355.120 C 186.727 354.966,183.683 354.786,180.119 354.720 C 176.554 354.654,173.764 354.726,173.919 354.880 M216.300 355.098 C 218.115 355.172,221.085 355.172,222.900 355.098 C 224.715 355.023,223.230 354.963,219.600 354.963 C 215.970 354.963,214.485 355.023,216.300 355.098 " stroke="none" fill="#967c7c" fill-rule="evenodd"></path><path id="path4" d="M190.200 44.005 C 189.528 44.179,190.584 44.221,192.600 44.102 C 194.580 43.985,196.275 43.824,196.367 43.744 C 196.681 43.472,191.400 43.695,190.200 44.005 M204.033 43.745 C 204.125 43.825,205.730 43.987,207.600 44.106 C 209.556 44.231,210.490 44.190,209.800 44.009 C 208.600 43.695,203.719 43.471,204.033 43.745 M182.800 45.206 C 182.378 45.482,182.615 45.523,183.600 45.342 C 185.325 45.025,185.651 44.798,184.367 44.806 C 183.835 44.809,183.130 44.989,182.800 45.206 M214.833 44.947 C 214.925 45.028,215.720 45.204,216.600 45.338 C 217.715 45.507,217.958 45.471,217.400 45.219 C 216.632 44.871,214.490 44.644,214.833 44.947 M178.880 45.995 C 178.154 46.167,177.447 46.420,177.309 46.558 C 177.012 46.855,179.454 46.415,180.600 45.965 C 181.620 45.564,180.624 45.582,178.880 45.995 M220.433 46.144 C 220.525 46.223,221.140 46.408,221.800 46.556 C 222.676 46.752,222.838 46.715,222.400 46.418 C 221.860 46.053,220.032 45.798,220.433 46.144 M174.200 47.386 C 172.655 48.093,173.374 48.103,175.200 47.400 C 175.970 47.103,176.330 46.855,176.000 46.848 C 175.670 46.842,174.860 47.083,174.200 47.386 M224.800 47.400 C 226.626 48.103,227.345 48.093,225.800 47.386 C 225.140 47.083,224.330 46.842,224.000 46.848 C 223.670 46.855,224.030 47.103,224.800 47.400 M170.600 48.586 C 169.055 49.293,169.774 49.303,171.600 48.600 C 172.370 48.303,172.730 48.055,172.400 48.048 C 172.070 48.042,171.260 48.283,170.600 48.586 M228.400 48.600 C 230.226 49.303,230.945 49.293,229.400 48.586 C 228.740 48.283,227.930 48.042,227.600 48.048 C 227.270 48.055,227.630 48.303,228.400 48.600 M165.642 50.434 C 165.115 50.645,164.784 50.917,164.907 51.040 C 165.029 51.162,165.640 50.986,166.265 50.647 C 167.521 49.966,167.139 49.835,165.642 50.434 M233.600 50.569 C 234.714 51.241,235.591 51.416,234.980 50.845 C 234.771 50.650,234.150 50.372,233.600 50.228 L 232.600 49.967 233.600 50.569 M238.033 52.551 C 238.442 52.921,241.600 54.395,241.600 54.216 C 241.600 53.989,238.581 52.400,238.149 52.400 C 237.994 52.400,237.942 52.468,238.033 52.551 M156.100 55.426 C 155.165 55.987,154.400 56.540,154.400 56.655 C 154.400 56.871,157.099 55.338,157.780 54.736 C 158.467 54.128,157.827 54.391,156.100 55.426 M242.800 54.950 C 242.800 55.044,243.441 55.499,244.224 55.961 C 245.007 56.423,245.536 56.620,245.399 56.398 C 245.131 55.964,242.800 54.666,242.800 54.950 M151.127 58.587 C 149.662 59.570,148.347 60.563,148.204 60.793 C 147.977 61.161,152.793 58.000,153.780 57.134 C 154.697 56.329,153.590 56.935,151.127 58.587 M246.600 57.442 C 248.052 58.561,249.024 58.892,247.800 57.850 C 247.140 57.288,246.420 56.828,246.200 56.827 C 245.980 56.826,246.160 57.103,246.600 57.442 M249.200 58.949 C 249.200 59.035,249.830 59.586,250.600 60.173 C 251.370 60.760,251.998 61.097,251.995 60.920 C 251.992 60.744,251.362 60.193,250.595 59.696 C 249.828 59.199,249.200 58.863,249.200 58.949 M252.600 61.485 C 252.820 61.712,254.260 62.979,255.800 64.298 C 261.570 69.243,267.410 75.712,271.306 81.477 C 272.227 82.839,273.042 83.891,273.118 83.815 C 273.922 83.011,263.033 70.142,257.201 65.004 C 254.867 62.947,251.596 60.446,252.600 61.485 M143.168 64.690 C 139.957 67.553,135.141 72.491,133.504 74.600 C 132.820 75.480,133.832 74.541,135.752 72.513 C 137.672 70.485,140.802 67.380,142.708 65.613 C 146.680 61.931,147.014 61.261,143.168 64.690 M129.492 79.833 C 127.893 82.100,126.525 84.337,127.065 83.800 C 127.714 83.155,131.192 78.000,130.978 78.000 C 130.871 78.000,130.202 78.825,129.492 79.833 M125.908 85.300 C 125.033 86.649,124.248 88.256,124.687 87.800 C 125.248 87.217,126.898 84.400,126.679 84.400 C 126.576 84.400,126.229 84.805,125.908 85.300 M274.711 86.958 C 275.524 88.380,276.249 89.485,276.321 89.412 C 276.500 89.233,274.011 84.854,273.578 84.586 C 273.388 84.469,273.898 85.536,274.711 86.958 M277.482 92.189 C 278.073 93.393,278.623 94.311,278.705 94.229 C 278.884 94.049,276.867 90.000,276.598 90.000 C 276.494 90.000,276.892 90.985,277.482 92.189 M120.411 95.771 C 119.817 97.334,119.934 97.580,120.647 96.265 C 120.986 95.640,121.164 95.030,121.042 94.909 C 120.921 94.788,120.637 95.176,120.411 95.771 M279.267 96.020 C 279.501 96.692,279.767 97.167,279.857 97.076 C 280.056 96.878,279.301 94.800,279.031 94.800 C 278.927 94.800,279.033 95.349,279.267 96.020 M118.446 100.839 C 118.201 101.543,118.013 102.318,118.028 102.560 C 118.044 102.802,118.314 102.296,118.630 101.435 C 118.945 100.574,119.133 99.800,119.048 99.715 C 118.962 99.629,118.692 100.135,118.446 100.839 M281.029 100.400 C 281.176 100.950,281.464 101.670,281.667 102.000 C 281.925 102.417,281.957 102.295,281.771 101.600 C 281.624 101.050,281.336 100.330,281.133 100.000 C 280.875 99.583,280.843 99.705,281.029 100.400 M117.246 104.439 C 117.001 105.143,116.813 105.918,116.828 106.160 C 116.844 106.402,117.114 105.896,117.430 105.035 C 117.745 104.174,117.933 103.400,117.848 103.315 C 117.762 103.229,117.492 103.735,117.246 104.439 M282.030 103.420 C 282.047 103.629,282.316 104.430,282.627 105.200 L 283.193 106.600 282.954 105.200 C 282.742 103.952,281.951 102.429,282.030 103.420 M116.257 107.900 C 116.148 108.285,115.955 109.230,115.828 110.000 C 115.538 111.749,116.160 110.421,116.530 108.500 C 116.793 107.134,116.595 106.699,116.257 107.900 M283.444 108.200 C 283.773 109.671,284.002 109.990,283.994 108.967 C 283.991 108.545,283.805 107.930,283.582 107.600 C 283.285 107.162,283.248 107.324,283.444 108.200 M284.487 112.200 C 284.491 112.640,284.632 113.540,284.800 114.200 C 285.074 115.278,285.106 115.298,285.113 114.400 C 285.117 113.850,284.976 112.950,284.800 112.400 C 284.549 111.616,284.481 111.573,284.487 112.200 M115.049 113.015 C 114.912 113.373,114.821 114.146,114.846 114.733 C 114.880 115.532,114.970 115.398,115.204 114.200 C 115.535 112.500,115.462 111.940,115.049 113.015 M285.693 119.400 C 285.685 120.280,285.816 121.990,285.983 123.200 L 286.287 125.400 286.309 123.600 C 286.320 122.610,286.190 120.900,286.018 119.800 C 285.718 117.869,285.706 117.855,285.693 119.400 M113.859 120.688 C 113.721 121.519,113.631 123.190,113.658 124.400 C 113.700 126.224,113.767 125.990,114.051 123.030 C 114.406 119.342,114.298 118.030,113.859 120.688 M113.647 136.233 C 113.673 137.535,113.836 139.140,114.009 139.800 C 114.190 140.490,114.231 139.556,114.106 137.600 C 113.854 133.631,113.579 132.813,113.647 136.233 M285.832 138.232 C 285.677 140.131,285.635 141.768,285.737 141.871 C 285.840 141.973,286.053 140.506,286.211 138.611 C 286.368 136.715,286.411 135.077,286.305 134.971 C 286.199 134.865,285.986 136.332,285.832 138.232 M114.828 145.433 C 114.844 146.075,115.016 146.960,115.210 147.400 C 115.447 147.934,115.486 147.602,115.327 146.400 C 115.046 144.280,114.788 143.780,114.828 145.433 M284.640 146.440 C 284.493 147.357,284.452 148.185,284.547 148.280 C 284.642 148.376,284.846 147.710,285.000 146.800 C 285.154 145.890,285.196 145.062,285.093 144.960 C 284.990 144.857,284.787 145.523,284.640 146.440 M116.006 151.033 C 116.009 151.455,116.195 152.070,116.418 152.400 C 116.715 152.838,116.752 152.676,116.556 151.800 C 116.227 150.329,115.998 150.010,116.006 151.033 M283.646 150.867 C 283.621 151.234,283.496 151.864,283.370 152.267 C 283.152 152.962,283.163 152.963,283.597 152.287 C 283.848 151.896,283.973 151.266,283.873 150.887 C 283.711 150.268,283.688 150.266,283.646 150.867 M116.848 154.000 C 116.842 154.330,117.083 155.140,117.386 155.800 C 118.093 157.345,118.103 156.626,117.400 154.800 C 117.103 154.030,116.855 153.670,116.848 154.000 M282.478 155.250 C 282.248 156.158,282.207 156.743,282.388 156.550 C 282.761 156.152,283.360 153.600,283.080 153.600 C 282.980 153.600,282.709 154.343,282.478 155.250 M118.048 157.600 C 118.042 157.930,118.283 158.740,118.586 159.400 C 119.293 160.945,119.303 160.226,118.600 158.400 C 118.303 157.630,118.055 157.270,118.048 157.600 M120.228 163.600 C 120.372 164.150,120.650 164.771,120.845 164.980 C 121.416 165.591,121.241 164.714,120.569 163.600 L 119.967 162.600 120.228 163.600 M279.267 163.980 C 279.033 164.651,278.927 165.200,279.031 165.200 C 279.301 165.200,280.056 163.122,279.857 162.924 C 279.767 162.833,279.501 163.308,279.267 163.980 M278.050 166.650 C 277.786 167.229,277.662 167.795,277.774 167.907 C 277.886 168.019,278.168 167.611,278.400 167.000 C 278.949 165.557,278.673 165.282,278.050 166.650 M122.400 168.149 C 122.400 168.581,123.989 171.600,124.216 171.600 C 124.326 171.600,124.030 170.835,123.559 169.900 C 122.632 168.061,122.400 167.711,122.400 168.149 M276.200 170.400 C 275.643 171.500,275.277 172.400,275.387 172.400 C 275.497 172.400,276.043 171.500,276.600 170.400 C 277.157 169.300,277.523 168.400,277.413 168.400 C 277.303 168.400,276.757 169.300,276.200 170.400 M125.186 173.573 C 125.627 174.438,126.161 175.252,126.371 175.382 C 126.582 175.512,126.299 174.805,125.743 173.809 C 124.501 171.587,124.082 171.409,125.186 173.573 M274.053 174.200 C 273.599 174.970,273.368 175.600,273.539 175.600 C 273.711 175.600,274.152 174.970,274.519 174.200 C 274.887 173.430,275.118 172.800,275.033 172.800 C 274.948 172.800,274.507 173.430,274.053 174.200 M126.827 176.200 C 126.828 176.420,127.288 177.140,127.850 177.800 C 128.412 178.460,128.688 178.640,128.465 178.200 C 127.858 177.004,126.825 175.743,126.827 176.200 M269.316 181.300 C 267.970 183.115,265.863 185.708,264.634 187.063 C 263.405 188.418,262.400 189.652,262.400 189.806 C 262.400 190.470,270.071 181.341,271.395 179.100 C 272.543 177.158,271.828 177.915,269.316 181.300 M129.696 180.595 C 130.193 181.362,130.744 181.992,130.920 181.995 C 131.097 181.998,130.760 181.370,130.173 180.600 C 128.800 178.800,128.532 178.797,129.696 180.595 M131.892 183.401 C 134.165 186.724,140.667 193.345,145.600 197.359 C 148.627 199.822,153.615 203.319,153.815 203.118 C 153.891 203.042,152.839 202.227,151.477 201.306 C 145.712 197.410,139.243 191.570,134.298 185.800 C 131.368 182.381,130.821 181.836,131.892 183.401 M260.914 191.080 C 260.427 191.586,260.174 192.000,260.352 192.000 C 260.742 192.000,262.198 190.445,261.964 190.277 C 261.874 190.213,261.401 190.574,260.914 191.080 M257.251 194.434 C 256.070 195.536,253.640 197.537,251.851 198.880 C 248.068 201.723,247.331 202.381,249.000 201.429 C 251.310 200.112,260.524 192.381,259.743 192.415 C 259.554 192.424,258.433 193.332,257.251 194.434 M154.586 203.578 C 154.854 204.011,159.233 206.500,159.412 206.321 C 159.485 206.249,158.380 205.524,156.958 204.711 C 155.536 203.898,154.469 203.388,154.586 203.578 M244.297 203.966 C 242.553 205.084,242.469 205.339,244.100 204.564 C 244.925 204.172,245.600 203.705,245.600 203.526 C 245.600 203.121,245.630 203.111,244.297 203.966 M240.300 206.226 C 239.255 206.770,238.400 207.305,238.400 207.414 C 238.400 207.524,239.300 207.157,240.400 206.600 C 241.500 206.043,242.400 205.500,242.400 205.393 C 242.400 205.129,242.436 205.114,240.300 206.226 M160.000 206.598 C 160.000 206.867,164.049 208.884,164.229 208.705 C 164.311 208.623,163.393 208.073,162.189 207.482 C 160.985 206.892,160.000 206.494,160.000 206.598 M236.400 208.231 L 235.400 208.833 236.400 208.572 C 236.950 208.428,237.571 208.150,237.780 207.955 C 238.391 207.384,237.514 207.559,236.400 208.231 M164.800 209.031 C 164.800 209.301,166.878 210.056,167.076 209.857 C 167.167 209.767,166.692 209.501,166.020 209.267 C 165.349 209.033,164.800 208.927,164.800 209.031 M233.800 209.414 C 232.795 209.898,232.763 209.953,233.600 209.751 C 234.150 209.619,234.771 209.350,234.980 209.155 C 235.498 208.671,235.214 208.733,233.800 209.414 M170.000 211.133 C 170.330 211.336,171.050 211.624,171.600 211.771 C 172.295 211.957,172.417 211.925,172.000 211.667 C 171.670 211.464,170.950 211.176,170.400 211.029 C 169.705 210.843,169.583 210.875,170.000 211.133 M173.420 212.358 C 173.629 212.555,174.430 212.823,175.200 212.954 L 176.600 213.193 175.200 212.627 C 173.526 211.950,172.884 211.853,173.420 212.358 M225.000 212.615 C 223.412 213.165,223.410 213.167,224.800 212.942 C 225.570 212.818,226.371 212.555,226.580 212.358 C 227.047 211.918,226.987 211.928,225.000 212.615 M177.600 213.582 C 177.930 213.805,178.545 213.991,178.967 213.994 C 179.990 214.002,179.671 213.773,178.200 213.444 C 177.324 213.248,177.162 213.285,177.600 213.582 M221.200 213.600 C 220.376 213.864,220.341 213.926,221.000 213.954 C 221.440 213.973,222.070 213.813,222.400 213.600 C 223.101 213.147,222.614 213.147,221.200 213.600 M182.400 214.800 C 182.950 214.976,183.850 215.117,184.400 215.113 C 185.298 215.106,185.278 215.074,184.200 214.800 C 182.508 214.369,181.056 214.369,182.400 214.800 M215.800 214.800 C 214.722 215.074,214.702 215.106,215.600 215.113 C 216.150 215.117,217.050 214.976,217.600 214.800 C 218.944 214.369,217.492 214.369,215.800 214.800 M189.800 216.018 C 190.900 216.190,192.610 216.320,193.600 216.309 L 195.400 216.287 193.200 215.983 C 191.990 215.816,190.280 215.685,189.400 215.693 C 187.855 215.706,187.869 215.718,189.800 216.018 M206.800 216.000 C 204.611 216.268,204.609 216.270,206.400 216.300 C 207.390 216.316,209.100 216.190,210.200 216.018 C 212.872 215.602,210.165 215.588,206.800 216.000 M115.700 304.300 C 162.065 304.356,237.935 304.356,284.300 304.300 C 330.665 304.244,292.730 304.198,200.000 304.198 C 107.270 304.198,69.335 304.244,115.700 304.300 M33.000 306.800 C 34.083 307.900,35.060 308.800,35.170 308.800 C 35.280 308.800,34.483 307.900,33.400 306.800 C 32.317 305.700,31.340 304.800,31.230 304.800 C 31.120 304.800,31.917 305.700,33.000 306.800 M366.585 306.900 L 364.600 309.000 366.700 307.015 C 368.651 305.171,368.983 304.800,368.685 304.800 C 368.622 304.800,367.677 305.745,366.585 306.900 M359.800 312.400 C 359.168 313.060,358.369 313.614,358.025 313.632 C 357.564 313.655,357.540 313.719,357.935 313.876 C 358.229 313.994,359.039 313.552,359.735 312.894 C 360.431 312.236,361.270 311.600,361.600 311.481 C 362.117 311.293,362.113 311.259,361.575 311.232 C 361.231 311.214,360.432 311.740,359.800 312.400 M355.163 315.845 C 354.869 316.199,354.262 316.638,353.814 316.819 C 353.240 317.052,353.186 317.157,353.630 317.175 C 353.977 317.189,354.683 316.750,355.200 316.200 C 355.717 315.650,356.040 315.200,355.919 315.200 C 355.797 315.200,355.457 315.490,355.163 315.845 M46.251 317.306 C 48.855 318.817,48.994 318.866,47.800 317.850 C 47.140 317.288,46.330 316.825,46.000 316.820 C 45.608 316.815,45.695 316.983,46.251 317.306 M57.699 324.178 C 58.303 324.493,59.023 324.868,59.299 325.010 C 59.574 325.153,59.350 324.898,58.800 324.444 C 58.250 323.989,57.530 323.615,57.200 323.611 C 56.870 323.608,57.094 323.863,57.699 324.178 M74.206 332.410 C 74.306 332.572,74.835 332.790,75.382 332.894 C 75.929 332.999,76.294 332.952,76.194 332.790 C 76.094 332.628,75.565 332.410,75.018 332.306 C 74.471 332.201,74.106 332.248,74.206 332.410 M325.000 332.285 C 323.775 332.580,323.398 333.128,324.576 332.903 C 325.146 332.794,325.710 332.546,325.830 332.352 C 325.949 332.159,325.992 332.021,325.924 332.046 C 325.856 332.072,325.440 332.179,325.000 332.285 M321.776 333.787 C 321.349 334.110,320.696 334.380,320.324 334.387 C 319.952 334.394,319.552 334.554,319.436 334.742 C 319.067 335.339,320.976 334.773,322.008 333.980 C 322.554 333.561,322.899 333.214,322.776 333.209 C 322.654 333.204,322.204 333.464,321.776 333.787 M81.806 335.610 C 81.906 335.772,82.435 335.990,82.982 336.094 C 83.529 336.199,83.894 336.152,83.794 335.990 C 83.694 335.828,83.165 335.610,82.618 335.506 C 82.071 335.401,81.706 335.448,81.806 335.610 M317.400 335.485 C 316.175 335.780,315.798 336.328,316.976 336.103 C 317.546 335.994,318.110 335.746,318.230 335.552 C 318.349 335.359,318.392 335.221,318.324 335.246 C 318.256 335.272,317.840 335.379,317.400 335.485 M88.606 338.010 C 88.706 338.172,89.235 338.390,89.782 338.494 C 90.329 338.599,90.694 338.552,90.594 338.390 C 90.494 338.228,89.965 338.010,89.418 337.906 C 88.871 337.801,88.506 337.848,88.606 338.010 M310.600 337.885 C 309.375 338.180,308.998 338.728,310.176 338.503 C 310.746 338.394,311.310 338.146,311.430 337.952 C 311.549 337.759,311.592 337.621,311.524 337.646 C 311.456 337.672,311.040 337.779,310.600 337.885 M106.216 343.626 C 106.312 343.781,106.923 343.986,107.574 344.082 C 108.225 344.177,108.679 344.129,108.584 343.974 C 108.488 343.819,107.877 343.614,107.226 343.518 C 106.575 343.423,106.121 343.471,106.216 343.626 M292.800 343.488 C 292.250 343.587,291.629 343.832,291.420 344.034 C 291.211 344.235,290.547 344.400,289.944 344.400 C 289.341 344.400,288.759 344.542,288.652 344.716 C 288.544 344.890,289.075 344.961,289.832 344.872 C 290.588 344.784,291.306 344.551,291.427 344.356 C 291.548 344.160,292.177 344.000,292.824 344.000 C 293.471 344.000,294.000 343.820,294.000 343.600 C 294.000 343.380,293.955 343.225,293.900 343.254 C 293.845 343.284,293.350 343.390,292.800 343.488 M109.200 344.555 C 109.200 344.640,109.730 344.787,110.379 344.882 C 111.027 344.977,111.467 344.908,111.355 344.728 C 111.157 344.407,109.200 344.250,109.200 344.555 M114.000 345.755 C 114.000 345.840,114.530 345.987,115.179 346.082 C 115.827 346.177,116.267 346.108,116.155 345.928 C 115.957 345.607,114.000 345.450,114.000 345.755 M283.845 345.928 C 283.733 346.108,284.173 346.177,284.821 346.082 C 285.470 345.987,286.000 345.840,286.000 345.755 C 286.000 345.450,284.043 345.607,283.845 345.928 M118.624 346.839 C 118.717 346.989,119.412 347.184,120.168 347.272 C 120.925 347.361,121.468 347.310,121.376 347.161 C 121.283 347.011,120.588 346.816,119.832 346.728 C 119.075 346.639,118.532 346.690,118.624 346.839 M280.000 346.800 L 278.600 347.095 279.876 347.147 C 280.578 347.176,281.264 347.020,281.400 346.800 C 281.536 346.580,281.592 346.424,281.524 346.453 C 281.456 346.482,280.770 346.638,280.000 346.800 M124.352 348.112 C 124.545 348.305,125.219 348.398,125.851 348.319 C 126.909 348.187,126.881 348.159,125.500 347.968 C 124.640 347.849,124.150 347.910,124.352 348.112 M274.400 348.000 L 273.000 348.295 274.276 348.347 C 274.978 348.376,275.664 348.220,275.800 348.000 C 275.936 347.780,275.992 347.624,275.924 347.653 C 275.856 347.682,275.170 347.838,274.400 348.000 M134.000 350.158 C 134.000 350.245,134.705 350.383,135.566 350.465 C 136.428 350.548,137.047 350.476,136.943 350.307 C 136.753 350.000,134.000 349.860,134.000 350.158 M263.057 350.307 C 262.953 350.476,263.572 350.548,264.434 350.465 C 265.295 350.383,266.000 350.245,266.000 350.158 C 266.000 349.860,263.247 350.000,263.057 350.307 M140.719 351.263 C 140.874 351.408,141.936 351.588,143.081 351.663 C 144.225 351.738,145.035 351.682,144.881 351.537 C 144.726 351.392,143.664 351.212,142.519 351.137 C 141.375 351.062,140.565 351.118,140.719 351.263 M257.400 351.096 C 256.300 351.180,255.274 351.372,255.119 351.524 C 254.965 351.676,255.775 351.738,256.919 351.663 C 258.064 351.588,259.171 351.363,259.380 351.163 C 259.589 350.963,259.679 350.832,259.580 350.872 C 259.481 350.912,258.500 351.013,257.400 351.096 M150.300 352.689 C 151.015 352.778,152.185 352.778,152.900 352.689 C 153.615 352.601,153.030 352.528,151.600 352.528 C 150.170 352.528,149.585 352.601,150.300 352.689 M245.862 352.700 C 245.760 352.865,246.514 352.947,247.538 352.883 C 250.712 352.684,251.109 352.511,248.524 352.454 C 247.162 352.425,245.964 352.535,245.862 352.700 M162.200 353.885 C 163.960 353.953,165.760 354.181,166.200 354.392 C 167.156 354.851,174.008 355.131,173.740 354.700 C 173.637 354.535,171.954 354.400,170.000 354.400 C 168.046 354.400,166.336 354.220,166.200 354.000 C 166.059 353.772,164.454 353.635,162.476 353.680 L 159.000 353.761 162.200 353.885 M233.800 354.000 C 233.664 354.220,231.954 354.400,230.000 354.400 C 228.046 354.400,226.363 354.535,226.260 354.700 C 225.992 355.131,232.844 354.851,233.800 354.392 C 234.240 354.181,236.040 353.953,237.800 353.885 L 241.000 353.761 237.524 353.680 C 235.546 353.635,233.941 353.772,233.800 354.000 M193.300 355.899 C 196.985 355.965,203.015 355.965,206.700 355.899 C 210.385 355.833,207.370 355.779,200.000 355.779 C 192.630 355.779,189.615 355.833,193.300 355.899 " stroke="none" fill="#a35151" fill-rule="evenodd"></path></g></svg>